<svg width="44" height="45" viewBox="0 0 44 45" fill="none" xmlns="http://www.w3.org/2000/svg">
<path d="M14.667 4.1665V9.6665" stroke="#58BD7D" stroke-width="2" stroke-miterlimit="10" stroke-linecap="round" stroke-linejoin="round"/>
<path d="M29.333 4.1665V9.6665" stroke="#58BD7D" stroke-width="2" stroke-miterlimit="10" stroke-linecap="round" stroke-linejoin="round"/>
<path d="M6.41699 17.165H37.5837" stroke="#58BD7D" stroke-width="2" stroke-miterlimit="10" stroke-linecap="round" stroke-linejoin="round"/>
<path d="M40.3337 35.3333C40.3337 36.7083 39.9487 38.01 39.2703 39.11C38.0053 41.2367 35.677 42.6667 33.0003 42.6667C31.1487 42.6667 29.462 41.9883 28.1787 40.8333C27.6103 40.3567 27.1153 39.77 26.7303 39.11C26.052 38.01 25.667 36.7083 25.667 35.3333C25.667 31.2817 28.9487 28 33.0003 28C35.2003 28 37.162 28.9716 38.5003 30.4933C39.637 31.795 40.3337 33.4817 40.3337 35.3333Z" stroke="#58BD7D" stroke-width="2" stroke-miterlimit="10" stroke-linecap="round" stroke-linejoin="round"/>
<path d="M30.1406 35.3333L31.9556 37.1483L35.8606 33.5366" stroke="#58BD7D" stroke-width="2" stroke-linecap="round" stroke-linejoin="round"/>
<path d="M38.5 16.0832V30.4931C37.1617 28.9715 35.2 27.9998 33 27.9998C28.9483 27.9998 25.6667 31.2815 25.6667 35.3332C25.6667 36.7082 26.0517 38.0098 26.73 39.1098C27.115 39.7698 27.61 40.3565 28.1783 40.8332H14.6667C8.25 40.8332 5.5 37.1665 5.5 31.6665V16.0832C5.5 10.5832 8.25 6.9165 14.6667 6.9165H29.3333C35.75 6.9165 38.5 10.5832 38.5 16.0832Z" stroke="#58BD7D" stroke-width="2" stroke-miterlimit="10" stroke-linecap="round" stroke-linejoin="round"/>
<path d="M21.9916 25.6169H22.008" stroke="#58BD7D" stroke-width="3" stroke-linecap="round" stroke-linejoin="round"/>
<path d="M15.2064 25.6169H15.2229" stroke="#58BD7D" stroke-width="3" stroke-linecap="round" stroke-linejoin="round"/>
<path d="M15.2064 31.1169H15.2229" stroke="#58BD7D" stroke-width="3" stroke-linecap="round" stroke-linejoin="round"/>
</svg>
