<svg width="24" height="24" viewBox="0 0 24 24" fill="none" xmlns="http://www.w3.org/2000/svg">
<g clip-path="url(#clip0_250_1951)">
<path d="M12 24C18.6274 24 24 18.6274 24 12C24 5.37258 18.6274 0 12 0C5.37258 0 0 5.37258 0 12C0 18.6274 5.37258 24 12 24Z" fill="#0052B4"/>
<path d="M11.9993 4.6958L12.3878 5.89153H13.645L12.6279 6.63052L13.0164 7.82625L11.9993 7.08722L10.9821 7.82625L11.3707 6.63052L10.3535 5.89153H11.6107L11.9993 4.6958Z" fill="#FFDA44"/>
<path d="M6.83377 6.83528L7.95408 7.40603L8.84306 6.51709L8.64633 7.75881L9.76659 8.32961L8.52483 8.52629L8.32814 9.76811L7.75734 8.64784L6.51562 8.84457L7.40461 7.95559L6.83377 6.83528Z" fill="#FFDA44"/>
<path d="M4.69531 12L5.89105 11.6115V10.3542L6.62998 11.3714L7.82577 10.9829L7.08669 12L7.82577 13.0172L6.62998 12.6287L5.89105 13.6458V12.3886L4.69531 12Z" fill="#FFDA44"/>
<path d="M6.83377 17.1652L7.40456 16.0449L6.51562 15.1559L7.75739 15.3527L8.32809 14.2324L8.52483 15.4742L9.76655 15.6709L8.64642 16.2417L8.84306 17.4834L7.95408 16.5944L6.83377 17.1652Z" fill="#FFDA44"/>
<path d="M11.9993 19.3044L11.6107 18.1087H10.3535L11.3707 17.3697L10.9821 16.1741L11.9993 16.913L13.0164 16.1741L12.6279 17.3697L13.645 18.1087H12.3878L11.9993 19.3044Z" fill="#FFDA44"/>
<path d="M17.1652 17.1652L16.0449 16.5945L15.1559 17.4834L15.3526 16.2416L14.2324 15.6709L15.4741 15.4742L15.6708 14.2324L16.2416 15.3527L17.4833 15.1559L16.5943 16.045L17.1652 17.1652Z" fill="#FFDA44"/>
<path d="M19.3042 12L18.1085 12.3886V13.6458L17.3695 12.6286L16.1738 13.0172L16.9128 12L16.1738 10.9829L17.3695 11.3714L18.1085 10.3542V11.6115L19.3042 12Z" fill="#FFDA44"/>
<path d="M17.1652 6.83523L16.5944 7.95554L17.4833 8.84453L16.2415 8.64775L15.6708 9.76801L15.4741 8.52625L14.2324 8.32951L15.3526 7.75876L15.1559 6.51709L16.0449 7.40603L17.1652 6.83523Z" fill="#FFDA44"/>
</g>
<defs>
<clipPath id="clip0_250_1951">
<rect width="24" height="24" fill="white"/>
</clipPath>
</defs>
</svg>
