<svg width="44" height="45" viewBox="0 0 44 45" fill="none" xmlns="http://www.w3.org/2000/svg">
<path fill-rule="evenodd" clip-rule="evenodd" d="M39.4608 18.38C38.2891 11.1688 32.164 5.80399 24.8612 5.5928C24.514 5.57919 24.1756 5.7042 23.9207 5.94029C23.6657 6.17637 23.5151 6.50415 23.502 6.85138V6.85138V6.96885L24.3242 19.2694C24.3782 20.0974 25.09 20.7269 25.9184 20.679L38.2525 19.8567C38.6001 19.831 38.923 19.6678 39.1498 19.4032C39.3766 19.1386 39.4885 18.7945 39.4608 18.4471V18.38Z" stroke="#D33535" stroke-width="2" stroke-linecap="round" stroke-linejoin="round"/>
<path d="M16.3198 12.9096C17.1044 12.7281 17.9073 13.1295 18.2329 13.8661C18.3182 14.0393 18.3694 14.2273 18.3839 14.4199C18.5517 16.8028 18.9041 22.0217 19.1055 24.8409C19.1399 25.3488 19.3752 25.822 19.7595 26.1558C20.1437 26.4896 20.6451 26.6566 21.1528 26.6197V26.6197L31.5067 25.982C31.969 25.9542 32.4221 26.1187 32.759 26.4365C33.0958 26.7542 33.2863 27.1971 33.2855 27.6601V27.6601C32.8659 33.9125 28.3738 39.1394 22.2556 40.4942C16.1374 41.8491 9.85857 39.0074 6.83853 33.5167C5.93699 31.9365 5.36606 30.1894 5.16042 28.3817C5.07251 27.8269 5.03879 27.2649 5.05973 26.7036C5.07754 20.0266 9.76683 14.2735 16.3031 12.9096" stroke="#D33535" stroke-width="2" stroke-linecap="round" stroke-linejoin="round"/>
</svg>
