<svg width="34" height="35" viewBox="0 0 34 35" fill="none" xmlns="http://www.w3.org/2000/svg">
<path d="M17.0037 10.5252C13.258 10.5252 10.2366 13.6381 10.2366 17.4974C10.2366 21.3566 13.258 24.4695 17.0037 24.4695C20.7495 24.4695 23.7708 21.3566 23.7708 17.4974C23.7708 13.6381 20.7495 10.5252 17.0037 10.5252ZM17.0037 22.0302C14.5831 22.0302 12.6042 19.9974 12.6042 17.4974C12.6042 14.9973 14.5772 12.9645 17.0037 12.9645C19.4302 12.9645 21.4032 14.9973 21.4032 17.4974C21.4032 19.9974 19.4243 22.0302 17.0037 22.0302ZM25.6261 10.24C25.6261 11.1441 24.9193 11.8662 24.0477 11.8662C23.1701 11.8662 22.4692 11.138 22.4692 10.24C22.4692 9.34191 23.176 8.61374 24.0477 8.61374C24.9193 8.61374 25.6261 9.34191 25.6261 10.24ZM30.108 11.8905C30.0079 9.71206 29.525 7.78242 27.976 6.19259C26.4329 4.60277 24.56 4.10519 22.4457 3.99596C20.2666 3.86853 13.735 3.86853 11.5559 3.99596C9.44741 4.09912 7.57452 4.5967 6.02557 6.18653C4.47661 7.77635 3.99955 9.70599 3.89354 11.8844C3.76986 14.1296 3.76986 20.8591 3.89354 23.1042C3.99366 25.2827 4.47661 27.2123 6.02557 28.8021C7.57452 30.3919 9.44152 30.8895 11.5559 30.9987C13.735 31.1262 20.2666 31.1262 22.4457 30.9987C24.56 30.8956 26.4329 30.398 27.976 28.8021C29.5191 27.2123 30.002 25.2827 30.108 23.1042C30.2317 20.8591 30.2317 14.1357 30.108 11.8905ZM27.2928 25.5132C26.8334 26.7026 25.9441 27.6189 24.7839 28.0982C23.0464 28.8082 18.9237 28.6444 17.0037 28.6444C15.0837 28.6444 10.9551 28.8021 9.2236 28.0982C8.06925 27.6249 7.17992 26.7086 6.71465 25.5132C6.02557 23.7232 6.18459 19.4755 6.18459 17.4974C6.18459 15.5192 6.03146 11.2655 6.71465 9.48147C7.17403 8.29214 8.06336 7.37586 9.2236 6.89649C10.961 6.18653 15.0837 6.35036 17.0037 6.35036C18.9237 6.35036 23.0523 6.19259 24.7839 6.89649C25.9382 7.36979 26.8275 8.28607 27.2928 9.48147C27.9819 11.2715 27.8229 15.5192 27.8229 17.4974C27.8229 19.4755 27.9819 23.7292 27.2928 25.5132Z" fill="#777E90"/>
</svg>
