<svg width="24" height="24" viewBox="0 0 24 24" fill="none" xmlns="http://www.w3.org/2000/svg">
<g clip-path="url(#clip0_74_1559)">
<path d="M12 24C18.6274 24 24 18.6274 24 12C24 5.37258 18.6274 0 12 0C5.37258 0 0 5.37258 0 12C0 18.6274 5.37258 24 12 24Z" fill="#F0F0F0"/>
<path d="M11.9997 0C6.84013 0 2.44161 3.2565 0.746094 7.82611H23.2534C21.5578 3.2565 17.1593 0 11.9997 0Z" fill="#A2001D"/>
<path d="M11.9997 23.9999C17.1593 23.9999 21.5578 20.7434 23.2533 16.1738H0.746094C2.44161 20.7434 6.84012 23.9999 11.9997 23.9999Z" fill="#323232"/>
<path d="M9.13039 11.2175C9.12383 11.2175 9.11741 11.2179 9.11084 11.218V11.2175H6.81692C6.93322 10.7681 7.34094 10.4348 7.82605 10.4348V8.86963C6.38759 8.86963 5.21736 10.0399 5.21736 11.4783V12.7566V12.7827H9.11084H9.13039C9.27425 12.7827 9.39125 12.8998 9.39125 13.0436V13.5653H4.17383V15.1305H10.9565V13.0435C10.9565 12.0366 10.1373 11.2175 9.13039 11.2175Z" fill="#496E2D"/>
<path d="M13.0437 13.5653V8.86963H11.4785V15.1305H14.0872V13.5653H13.0437Z" fill="#496E2D"/>
<path d="M18.2606 13.5653V8.86963H16.6954V13.5653H16.1736V12.0001H14.6084V15.1306H19.3041V13.5653H18.2606Z" fill="#496E2D"/>
</g>
<defs>
<clipPath id="clip0_74_1559">
<rect width="24" height="24" fill="white"/>
</clipPath>
</defs>
</svg>
