<svg width="24" height="24" viewBox="0 0 24 24" fill="none" xmlns="http://www.w3.org/2000/svg">
<g clip-path="url(#clip0_74_1547)">
<path d="M12 24C18.6274 24 24 18.6274 24 12C24 5.37258 18.6274 0 12 0C5.37258 0 0 5.37258 0 12C0 18.6274 5.37258 24 12 24Z" fill="#F0F0F0"/>
<path d="M11.4775 12.0001H23.9993C23.9993 10.9169 23.8549 9.86779 23.5859 8.86963H11.4775V12.0001Z" fill="#D80027"/>
<path d="M11.4775 5.73934H22.238C21.5034 4.54065 20.5643 3.48114 19.4691 2.60889H11.4775V5.73934Z" fill="#D80027"/>
<path d="M12.0001 24.0003C14.8243 24.0003 17.4201 23.0242 19.47 21.3916H4.53027C6.58016 23.0242 9.17596 24.0003 12.0001 24.0003Z" fill="#D80027"/>
<path d="M1.76098 18.2608H22.2384C22.8281 17.2986 23.2855 16.2467 23.5863 15.1304H0.413086C0.713883 16.2467 1.17124 17.2986 1.76098 18.2608Z" fill="#D80027"/>
<path d="M12 12C12 5.37262 12 4.59131 12 0C5.37262 0 0 5.37262 0 12H12Z" fill="#0052B4"/>
<path d="M7.98001 10.2718C6.34116 10.2718 5.01263 8.94327 5.01263 7.30447C5.01263 5.66567 6.34121 4.33709 7.98001 4.33709C8.49099 4.33709 8.97179 4.46633 9.39155 4.69377C8.73305 4.04984 7.83249 3.65234 6.8387 3.65234C4.82171 3.65234 3.18652 5.28748 3.18652 7.30452C3.18652 9.32155 4.82171 10.9567 6.8387 10.9567C7.83249 10.9567 8.73305 10.5592 9.39155 9.91527C8.97179 10.1426 8.49104 10.2718 7.98001 10.2718Z" fill="#FFDA44"/>
<path d="M8.81647 5.21729L9.3433 6.31894L10.533 6.04407L10.0002 7.14277L10.9571 7.90153L9.76578 8.17008L9.76911 9.39122L8.81647 8.62725L7.86378 9.39122L7.86706 8.17008L6.67578 7.90153L7.63259 7.14277L7.09977 6.04407L8.28959 6.31894L8.81647 5.21729Z" fill="#FFDA44"/>
</g>
<defs>
<clipPath id="clip0_74_1547">
<rect width="24" height="24" fill="white"/>
</clipPath>
</defs>
</svg>
