<svg width="16" height="16" viewBox="0 0 16 16" fill="none" xmlns="http://www.w3.org/2000/svg">
<path fill-rule="evenodd" clip-rule="evenodd" d="M7.36881 2.5999C6.10415 2.5999 4.89128 3.10229 3.99703 3.99654C3.10278 4.89079 2.60039 6.10366 2.60039 7.36832C2.60039 8.63299 3.10278 9.84585 3.99703 10.7401C4.89128 11.6344 6.10415 12.1367 7.36881 12.1367C8.62791 12.1367 9.83567 11.6388 10.7288 10.7519C10.7335 10.7468 10.7383 10.7419 10.7432 10.7369C10.7477 10.7325 10.7522 10.7281 10.7568 10.7238C11.6409 9.83114 12.1372 8.62532 12.1372 7.36832C12.1372 6.10366 11.6348 4.89079 10.7406 3.99654C9.84634 3.10229 8.63348 2.5999 7.36881 2.5999ZM3.1485 3.14801C4.2678 2.02872 5.78589 1.3999 7.36881 1.3999C8.95174 1.3999 10.4698 2.02872 11.5891 3.14801C12.7084 4.26731 13.3372 5.7854 13.3372 7.36832C13.3372 8.74893 12.8589 10.0802 11.994 11.1406L14.425 13.576C14.6591 13.8105 14.6588 14.1904 14.4243 14.4245C14.1898 14.6586 13.8099 14.6583 13.5757 14.4238L11.1459 11.9896C10.0847 12.857 8.75149 13.3367 7.36881 13.3367C5.78589 13.3367 4.2678 12.7079 3.1485 11.5886C2.0292 10.4693 1.40039 8.95125 1.40039 7.36832C1.40039 5.7854 2.0292 4.26731 3.1485 3.14801Z" fill="#777E90"/>
</svg>
