<svg width="44" height="45" viewBox="0 0 44 45" fill="none" xmlns="http://www.w3.org/2000/svg">
<g clip-path="url(#clip0_83_1679)">
<path d="M26.0332 4.16699H21.6332C21.0253 4.16699 20.5332 4.65907 20.5332 5.26699C20.5332 5.87491 21.0253 6.36699 21.6332 6.36699H26.0332C26.6411 6.36699 27.1332 5.87491 27.1332 5.26699C27.1332 4.65907 26.6411 4.16699 26.0332 4.16699Z" fill="#3772FF"/>
<path d="M30.7998 0.5H13.1998C10.774 0.5 8.7998 2.47416 8.7998 4.9V40.1C8.7998 42.5258 10.774 44.5 13.1998 44.5H30.7998C33.2257 44.5 35.1998 42.5258 35.1998 40.1V4.9C35.1998 2.47416 33.2257 0.5 30.7998 0.5ZM32.9998 40.1C32.9998 41.3152 32.015 42.3 30.7998 42.3H13.1998C11.9846 42.3 10.9998 41.3152 10.9998 40.1V4.9C10.9998 3.68484 11.9846 2.7 13.1998 2.7H30.7998C32.015 2.7 32.9998 3.68484 32.9998 4.9V40.1Z" fill="#3772FF"/>
<path d="M21.9998 40.8336C23.2148 40.8336 24.1998 39.8486 24.1998 38.6336C24.1998 37.4186 23.2148 36.4336 21.9998 36.4336C20.7848 36.4336 19.7998 37.4186 19.7998 38.6336C19.7998 39.8486 20.7848 40.8336 21.9998 40.8336Z" fill="#3772FF"/>
<path d="M17.9662 6.36699C18.5737 6.36699 19.0662 5.8745 19.0662 5.26699C19.0662 4.65948 18.5737 4.16699 17.9662 4.16699C17.3587 4.16699 16.8662 4.65948 16.8662 5.26699C16.8662 5.8745 17.3587 6.36699 17.9662 6.36699Z" fill="#3772FF"/>
</g>
<defs>
<clipPath id="clip0_83_1679">
<rect width="44" height="44" fill="white" transform="translate(0 0.5)"/>
</clipPath>
</defs>
</svg>
