<svg width="16" height="17" viewBox="0 0 16 17" fill="none" xmlns="http://www.w3.org/2000/svg">
<g clip-path="url(#clip0_67_1387)">
<path d="M15.957 6.62682C15.8337 6.24744 15.4655 5.98663 14.9467 5.91125L10.8326 5.3134L8.9927 1.58543C8.7607 1.1153 8.39885 0.845703 7.99997 0.845703C7.60108 0.845703 7.23927 1.11533 7.00726 1.58543L5.16745 5.31337L1.05333 5.91125C0.534507 5.98663 0.166282 6.24741 0.0429989 6.62679C-0.080253 7.00617 0.064343 7.43362 0.439724 7.7995L3.41671 10.7013L2.71392 14.7989C2.62151 15.3379 2.77848 15.6602 2.92642 15.8357C3.09948 16.0409 3.35196 16.154 3.63734 16.154C3.85312 16.154 4.08287 16.0907 4.32016 15.9659L8 14.0313L11.6798 15.9658C11.9172 16.0907 12.1469 16.1539 12.3627 16.1539H12.3628C12.6482 16.1539 12.9006 16.0409 13.0737 15.8356C13.2216 15.6602 13.3786 15.3378 13.2862 14.7988L12.5833 10.7013L15.5603 7.79953C15.9356 7.43362 16.0802 7.00621 15.957 6.62682ZM14.9059 7.12818L11.7524 10.202C11.6419 10.3097 11.5915 10.4649 11.6176 10.6169L12.3621 14.9573C12.3861 15.0971 12.3739 15.1809 12.3626 15.2164C12.3343 15.2164 12.2539 15.2085 12.1161 15.136L8.21816 13.0868C8.14984 13.0509 8.07494 13.0329 8.00003 13.0329C7.92512 13.0329 7.85018 13.0509 7.7819 13.0868L3.8839 15.1361C3.74627 15.2084 3.66587 15.2164 3.63755 15.2164C3.62621 15.1809 3.61405 15.0971 3.63802 14.9573L4.38247 10.6169C4.40854 10.4648 4.35813 10.3097 4.24766 10.202L1.09417 7.12811C0.992482 7.02899 0.953075 6.95399 0.94145 6.91867C0.971607 6.89695 1.04758 6.85942 1.18817 6.83898L5.54624 6.20566C5.69893 6.18347 5.8309 6.08757 5.89918 5.94922L7.84809 2.00025C7.9109 1.87294 7.97006 1.81228 8.00006 1.79028C8.03006 1.81228 8.08925 1.87294 8.15206 2.00028L10.101 5.94922C10.1693 6.08757 10.3013 6.18347 10.4539 6.20566L14.8119 6.83898C14.9525 6.85939 15.0285 6.89692 15.0586 6.91867C15.0469 6.95402 15.0075 7.02905 14.9059 7.12818Z" fill="#777E90"/>
</g>
<defs>
<clipPath id="clip0_67_1387">
<rect width="16" height="16" fill="white" transform="translate(0 0.5)"/>
</clipPath>
</defs>
</svg>
