<svg width="20" height="21" viewBox="0 0 20 21" fill="none" xmlns="http://www.w3.org/2000/svg">
<path d="M19.4141 14.5432C19.7266 14.6995 19.9609 15.051 19.9609 15.4417C19.9609 15.4807 19.9609 15.5588 19.9609 15.637L19.0234 19.6995C18.9062 20.1292 18.5547 20.4026 18.125 20.4026C8.08594 20.4026 0 12.3167 0 2.27759C0 1.8479 0.273438 1.49634 0.703125 1.37915L4.76562 0.44165C4.84375 0.44165 4.92188 0.402588 4.96094 0.402588C5.35156 0.402588 5.70312 0.636963 5.85938 0.988525L7.73438 5.36353C7.77344 5.48071 7.8125 5.5979 7.8125 5.71509C7.8125 6.02759 7.65625 6.30103 7.46094 6.45728L5.07812 8.4104C6.52344 11.4573 8.94531 13.8792 11.9922 15.3245L13.9453 12.9417C14.1016 12.7463 14.375 12.5901 14.6484 12.5901C14.8047 12.5901 14.9219 12.6292 15.0391 12.6682L19.4141 14.5432Z" fill="white"/>
</svg>
