<svg width="20" height="21" viewBox="0 0 20 21" fill="none" xmlns="http://www.w3.org/2000/svg">
<path d="M20 18.5276C20 19.5823 19.1406 20.4026 18.125 20.4026H1.875C0.820312 20.4026 0 19.5823 0 18.5276V8.25415C0 7.66821 0.273438 7.12134 0.703125 6.76978C1.67969 6.02759 2.46094 5.40259 7.10938 2.04321C7.77344 1.57446 9.0625 0.402588 10 0.44165C10.8984 0.402588 12.1875 1.57446 12.8516 2.04321C17.5 5.40259 18.2812 6.02759 19.2578 6.76978C19.6875 7.12134 20 7.66821 20 8.25415V18.5276ZM17.4219 10.8713C17.3047 10.7151 17.1094 10.676 16.9531 10.7932C16.0938 11.4573 14.8047 12.3948 12.8516 13.801C12.1875 14.2698 10.8984 15.4417 10 15.4026C9.0625 15.4417 7.77344 14.2698 7.10938 13.801C5.15625 12.3948 3.86719 11.4573 3.00781 10.7932C2.85156 10.676 2.65625 10.7151 2.53906 10.8713L2.1875 11.3792C2.14844 11.4182 2.14844 11.4963 2.14844 11.5745C2.14844 11.6526 2.1875 11.7698 2.26562 11.8088C3.16406 12.4729 4.41406 13.4104 6.36719 14.8167C7.1875 15.4026 8.59375 16.6917 10 16.6526C11.3672 16.6917 12.7734 15.4026 13.5938 14.8167C15.5469 13.4104 16.7969 12.4729 17.6953 11.8088C17.7734 11.7698 17.8125 11.6526 17.8125 11.5745C17.8125 11.4963 17.8125 11.4182 17.7734 11.3792L17.4219 10.8713Z" fill="white"/>
</svg>
