<svg width="26" height="20" viewBox="0 0 26 20" fill="none" xmlns="http://www.w3.org/2000/svg">
<path d="M19.8691 8.75C22.9551 8.75 25.4941 11.2891 25.4941 14.375C25.4941 17.5 22.9551 20 19.8691 20C16.7441 20 14.2441 17.5 14.2441 14.375C14.2441 11.2891 16.7441 8.75 19.8691 8.75ZM22.3691 14.6484V14.1406C22.3691 13.9453 22.1738 13.75 21.9785 13.75H20.4941V11.6406C20.4941 11.4453 20.2988 11.2891 20.1035 11.2891H19.5957C19.4004 11.2891 19.2441 11.4453 19.2441 11.6406V14.6484C19.2441 14.8438 19.4004 15 19.5957 15H21.9785C22.1738 15 22.3691 14.8438 22.3691 14.6484ZM19.8691 7.5C18.3848 7.5 17.0176 7.96875 15.9238 8.75H0.494141V5.625C0.494141 4.64844 1.35352 3.75 2.36914 3.75H5.49414V1.875C5.49414 0.898438 6.35352 0 7.36914 0H13.6191C14.5957 0 15.4941 0.898438 15.4941 1.875V3.75H18.6191C19.5957 3.75 20.4941 4.64844 20.4941 5.625V7.53906C20.2598 7.53906 20.0645 7.5 19.8691 7.5ZM12.9941 3.75V2.5H7.99414V3.75H12.9941ZM13.2285 12.5C13.0723 13.125 12.9941 13.75 12.9941 14.375C12.9941 15.5078 13.2676 16.5625 13.7363 17.5H2.36914C1.35352 17.5 0.494141 16.6406 0.494141 15.625V10H7.99414V11.875C7.99414 12.2266 8.26758 12.5 8.61914 12.5H13.2285Z" fill="white"/>
</svg>
