<svg width="35" height="35" viewBox="0 0 35 35" fill="none" xmlns="http://www.w3.org/2000/svg">
<path d="M31.2588 18C31.2588 21.5804 29.8365 25.0142 27.3047 27.5459C24.773 30.0777 21.3392 31.5 17.7588 31.5C14.1784 31.5 10.7446 30.0777 8.21285 27.5459C5.68111 25.0142 4.25879 21.5804 4.25879 18C4.25879 14.4196 5.68111 10.9858 8.21285 8.45406C10.7446 5.92232 14.1784 4.5 17.7588 4.5C21.3392 4.5 24.773 5.92232 27.3047 8.45406C29.8365 10.9858 31.2588 14.4196 31.2588 18ZM18.2431 14.4664C16.9302 15.0131 14.3045 16.1438 10.3692 17.8582C9.73135 18.1114 9.39554 18.3611 9.36516 18.6041C9.31454 19.0142 9.82923 19.1762 10.5295 19.3973L10.8249 19.4901C11.5134 19.7145 12.4415 19.9761 12.9224 19.9862C13.3612 19.9963 13.8489 19.8174 14.3872 19.4462C18.0642 16.9639 19.9627 15.7101 20.0808 15.6831C20.1652 15.6628 20.2833 15.6392 20.3609 15.7101C20.4402 15.7793 20.4318 15.9126 20.4234 15.948C20.3727 16.1657 18.3528 18.0422 17.3082 19.0142C16.9825 19.3179 16.7514 19.5323 16.7041 19.5812C16.6001 19.6875 16.4943 19.7922 16.3869 19.8951C15.7456 20.5127 15.2664 20.9751 16.4122 21.7311C16.964 22.0956 17.4061 22.3942 17.8465 22.6946C18.3258 23.022 18.805 23.3477 19.426 23.7561C19.583 23.8573 19.7349 23.967 19.8817 24.0716C20.4402 24.4699 20.9448 24.8276 21.5641 24.7703C21.9252 24.7365 22.2982 24.399 22.4872 23.3865C22.9344 20.9953 23.8135 15.8164 24.016 13.6817C24.0284 13.5042 24.021 13.326 23.9941 13.1501C23.9782 13.0082 23.9095 12.8775 23.8017 12.7839C23.6482 12.6779 23.4651 12.623 23.2786 12.627C22.7724 12.6354 21.991 12.9071 18.2431 14.4664Z" fill="#777E90"/>
</svg>
